<svg xmlns="http://www.w3.org/2000/svg" viewBox="0 0 400 225">
  <defs>
    <style>
      .cls-1 {
      fill: none;
      }

      .cls-2 {
      fill: #c6c6c7;
      }

      .cls-3, .cls-4 {
      fill: #fff;
      }

      .cls-3 {
      opacity: 0.7;
      }
    </style>
  </defs>
  <title>content type placeholder_2</title>
  <g id="Layer_2" data-name="Layer 2">
    <g id="content_type_placeholder-1_copy" data-name="content type placeholder-1 copy">
      <rect class="cls-1" width="400" height="225"/>
      <rect class="cls-2" x="112.51" y="43.41" width="176.96" height="135.45" rx="10" ry="10"/>
      <circle class="cls-3" cx="136.66" cy="61.98" r="4.81"/>
      <circle class="cls-3" cx="151.49" cy="61.98" r="4.81"/>
      <circle class="cls-3" cx="166.1" cy="61.98" r="4.81"/>
      <g id="_Group_" data-name="&lt;Group&gt;">
        <g id="_Group_2" data-name="&lt;Group&gt;">
          <path id="_Compound_Path_" data-name="&lt;Compound Path&gt;" class="cls-4" d="M263.28,95.21C260,92.07,255,91.5,248.43,91.5H227v8H199.5l-2.17,10.24a25.84,25.84,0,0,1,11.48-1.63,19.93,19.93,0,0,1,14.39,5.57,18.26,18.26,0,0,1,5.52,13.6,23.11,23.11,0,0,1-2.84,11.05,18.65,18.65,0,0,1-8.06,7.79,9,9,0,0,1-4.12,1.37H236v-21h10.42c7.36,0,12.83-1.61,16.42-5s5.38-7.48,5.38-13.44C268.22,102.29,266.57,98.35,263.28,95.21Zm-15,17c-1.42,1.22-3.9,1.25-7.41,1.25H236v-14h5.62a9.57,9.57,0,0,1,7,2.93,7.05,7.05,0,0,1,1.85,4.92A6.33,6.33,0,0,1,248.31,112.25Z"/>
          <path id="_Path_" data-name="&lt;Path&gt;" class="cls-4" d="M202.9,119.11a8.12,8.12,0,0,0-7.28,4.52l-16-1.22,7.22-30.92H174v22H153v-22H136v56h17v-21h21v21h20.31c-2.72,0-5-1.53-7-3a19.19,19.19,0,0,1-4.73-4.83,23.58,23.58,0,0,1-3-6.6l16-2.26a8.11,8.11,0,1,0,7.26-11.72Z"/>
        </g>
      </g>
      <rect class="cls-3" x="177.66" y="57.66" width="92.28" height="9.38" rx="3.5" ry="3.5"/>
    </g>
  </g>
</svg>
