<?xml version="1.0" encoding="utf-8"?>
<!-- Generator: Adobe Illustrator 17.1.0, SVG Export Plug-In . SVG Version: 6.00 Build 0)  -->
<!DOCTYPE svg PUBLIC "-//W3C//DTD SVG 1.1//EN" "http://www.w3.org/Graphics/SVG/1.1/DTD/svg11.dtd">
<svg version="1.1" id="Layer_1" xmlns="http://www.w3.org/2000/svg" xmlns:xlink="http://www.w3.org/1999/xlink" x="0px" y="0px"
	 viewBox="0 0 200 200" enable-background="new 0 0 200 200" xml:space="preserve">
<g>
	<rect fill="#1D1D1D" width="200" height="200"/>
	<g>
		<path fill="#FFFFFF" d="M151.8,79c-2.7-2.6-6.8-4-12.3-4h-14.6H121v10H98.8L97,92.7c1.5-0.7,3.6-1.3,5.1-1.6
			c1.5-0.4,2.9-0.2,4.4-0.2c4.9,0,8.9,1.5,11.9,4.5c3.1,3,4.6,6.7,4.6,11.2c0,3.2-0.8,6.2-2.4,9.1c-1.6,2.9-3.8,5.2-6.7,6.8
			c-1,0.6-2.2,0.4-3.4,1.4h14.2h4.1v-18h8.8c6.1,0,10.7-1.4,13.6-4.2c3-2.8,4.5-6.7,4.5-11.6C155.9,85.4,154.5,81.6,151.8,79z
			 M139.4,94.5c-1.2,1-3.2,1.5-6.2,1.5H129V85h4.8c2.8,0,4.8,0.6,5.8,1.7c1,1.1,1.5,2.4,1.5,3.9C141.1,92.2,140.5,93.5,139.4,94.5z"
			/>
		<path fill="#FFFFFF" d="M101.7,99.8c-2.7,0-4.9,1.5-6,3.8l-13.3-1.9l6-26.6h-7.9H76v21H60V75H45v49h15v-18h16v18h4.4h14.1
			c-2.3-1-4.2-1.6-5.8-2.8c-1.6-1.2-2.9-2.6-3.9-4.2c-1-1.5-1.8-3.3-2.5-5.6l13.3-1.9c1.1,2.2,3.4,3.7,6,3.7c3.7,0,6.7-3,6.7-6.7
			C108.4,102.8,105.4,99.8,101.7,99.8z"/>
	</g>
</g>
</svg>
