<?xml version="1.0" encoding="UTF-8" standalone="no"?>
<!-- Generator: Adobe Illustrator 17.1.0, SVG Export Plug-In . SVG Version: 6.00 Build 0)  -->

<svg
   xmlns:dc="http://purl.org/dc/elements/1.1/"
   xmlns:cc="http://creativecommons.org/ns#"
   xmlns:rdf="http://www.w3.org/1999/02/22-rdf-syntax-ns#"
   xmlns:svg="http://www.w3.org/2000/svg"
   xmlns="http://www.w3.org/2000/svg"
   xmlns:sodipodi="http://sodipodi.sourceforge.net/DTD/sodipodi-0.dtd"
   xmlns:inkscape="http://www.inkscape.org/namespaces/inkscape"
   version="1.1"
   id="Layer_1"
   x="0px"
   y="0px"
   viewBox="0 0 32 32"
   enable-background="new 0 0 200 200"
   xml:space="preserve"
   sodipodi:docname="icon_xhfp_s.svg"
   width="32"
   height="32"
   inkscape:version="0.92.3 (2405546, 2018-03-11)"><metadata
   id="metadata17"><rdf:RDF><cc:Work
       rdf:about=""><dc:format>image/svg+xml</dc:format><dc:type
         rdf:resource="http://purl.org/dc/dcmitype/StillImage" /><dc:title></dc:title></cc:Work></rdf:RDF></metadata><defs
   id="defs15" /><sodipodi:namedview
   pagecolor="#ffffff"
   bordercolor="#666666"
   borderopacity="1"
   objecttolerance="10"
   gridtolerance="10"
   guidetolerance="10"
   inkscape:pageopacity="0"
   inkscape:pageshadow="2"
   inkscape:window-width="1238"
   inkscape:window-height="715"
   id="namedview13"
   showgrid="false"
   inkscape:zoom="13.350176"
   inkscape:cx="31.085324"
   inkscape:cy="34.173125"
   inkscape:window-x="467"
   inkscape:window-y="251"
   inkscape:window-maximized="0"
   inkscape:current-layer="Layer_1" />
<g
   id="g10"
   transform="scale(0.16)">
	<rect
   width="200"
   height="200"
   id="rect2"
   x="0"
   y="0"
   style="fill:#1d1d1d" />
	<g
   id="g8">
		<path
   d="M 151.8,79 C 149.1,76.4 145,75 139.5,75 H 124.9 121 V 85 H 98.8 L 97,92.7 c 1.5,-0.7 3.6,-1.3 5.1,-1.6 1.5,-0.4 2.9,-0.2 4.4,-0.2 4.9,0 8.9,1.5 11.9,4.5 3.1,3 4.6,6.7 4.6,11.2 0,3.2 -0.8,6.2 -2.4,9.1 -1.6,2.9 -3.8,5.2 -6.7,6.8 -1,0.6 -2.2,0.4 -3.4,1.4 h 14.2 4.1 v -18 h 8.8 c 6.1,0 10.7,-1.4 13.6,-4.2 3,-2.8 4.5,-6.7 4.5,-11.6 0.2,-4.7 -1.2,-8.5 -3.9,-11.1 z m -12.4,15.5 c -1.2,1 -3.2,1.5 -6.2,1.5 H 129 V 85 h 4.8 c 2.8,0 4.8,0.6 5.8,1.7 1,1.1 1.5,2.4 1.5,3.9 0,1.6 -0.6,2.9 -1.7,3.9 z"
   id="path4"
   inkscape:connector-curvature="0"
   style="fill:#ffffff" />
		<path
   d="m 101.7,99.8 c -2.7,0 -4.9,1.5 -6,3.8 l -13.3,-1.9 6,-26.6 H 80.5 76 v 21 H 60 V 75 H 45 v 49 h 15 v -18 h 16 v 18 h 4.4 14.1 c -2.3,-1 -4.2,-1.6 -5.8,-2.8 -1.6,-1.2 -2.9,-2.6 -3.9,-4.2 -1,-1.5 -1.8,-3.3 -2.5,-5.6 l 13.3,-1.9 c 1.1,2.2 3.4,3.7 6,3.7 3.7,0 6.7,-3 6.7,-6.7 0.1,-3.7 -2.9,-6.7 -6.6,-6.7 z"
   id="path6"
   inkscape:connector-curvature="0"
   style="fill:#ffffff" />
	</g>
</g>
</svg>